<svg width="18" height="18" viewBox="0 0 18 18" fill="none" xmlns="http://www.w3.org/2000/svg">
<g id="discussion">
<path id="Vector" d="M7.35127 10.1633L7.35105 10.1636L4.29105 13.2236L3.47006 14.0445C3.67364 14.1251 3.89626 14.1453 4.11125 14.1026C4.33215 14.0586 4.53508 13.9502 4.69439 13.791C4.6944 13.791 4.6944 13.791 4.69441 13.791L7.59014 10.8964L7.73658 10.75H7.94362H11.5312C11.9208 10.75 12.2944 10.5953 12.5698 10.3198C12.8453 10.0444 13 9.67079 13 9.28125V3.09375C13 2.70421 12.8453 2.33063 12.5698 2.05519C12.2944 1.77974 11.9208 1.625 11.5312 1.625H1.96875C1.57921 1.625 1.20563 1.77974 0.930187 2.05519C0.654743 2.33063 0.5 2.70421 0.5 3.09375V9.28125C0.5 10.0919 1.15814 10.75 1.96875 10.75H2.25H2.75V11.25V12.9857C2.75 12.9858 2.75 12.9858 2.75 12.9859C2.75011 13.2111 2.81696 13.4311 2.9421 13.6184C3.06411 13.8009 3.23618 13.9441 3.4375 14.0311V12.87V10.4062C3.4375 10.3151 3.40128 10.2276 3.33682 10.1632C3.27235 10.0987 3.18492 10.0625 3.09375 10.0625H1.96875C1.76155 10.0625 1.56284 9.98019 1.41632 9.83368C1.26981 9.68717 1.1875 9.48845 1.1875 9.28125V3.09375C1.1875 2.88655 1.26981 2.68784 1.41632 2.54132C1.56284 2.39481 1.76155 2.3125 1.96875 2.3125H11.5312C11.7385 2.3125 11.9372 2.39481 12.0837 2.54133C12.2302 2.68784 12.3125 2.88655 12.3125 3.09375V9.28125C12.3125 9.48845 12.2302 9.68716 12.0837 9.83367L7.35127 10.1633ZM7.35127 10.1633C7.41568 10.0988 7.50305 10.0626 7.59419 10.0625H11.5312C11.7384 10.0625 11.9372 9.98019 12.0837 9.83368L7.35127 10.1633ZM15.75 13H15.25V13.5V15.2357C15.25 15.2358 15.25 15.2358 15.25 15.2359C15.2499 15.4611 15.183 15.6812 15.0579 15.8684C14.9359 16.0509 14.7638 16.1941 14.5625 16.2811V15.12V12.6562C14.5625 12.5651 14.5987 12.4776 14.6632 12.4132L14.3096 12.0596L14.6632 12.4132C14.7276 12.3487 14.8151 12.3125 14.9062 12.3125H16.0312C16.2384 12.3125 16.4372 12.2302 16.5837 12.0837C16.7302 11.9372 16.8125 11.7384 16.8125 11.5312V5.34375C16.8125 5.13655 16.7302 4.93784 16.5837 4.79132C16.4372 4.64481 16.2384 4.5625 16.0312 4.5625H15.4688C15.3776 4.5625 15.2901 4.52628 15.2257 4.46182C15.1612 4.39735 15.125 4.30992 15.125 4.21875C15.125 4.12758 15.1612 4.04015 15.2257 3.97568C15.2901 3.91122 15.3776 3.875 15.4688 3.875H16.0312C16.8419 3.875 17.5 4.53314 17.5 5.34375V11.5312C17.5 11.9208 17.3453 12.2944 17.0698 12.5698C16.7944 12.8453 16.4208 13 16.0312 13H15.75ZM13.7089 15.4736L14.5299 16.2945C14.3264 16.3751 14.1037 16.3953 13.8888 16.3526C13.6679 16.3086 13.465 16.2003 13.3057 16.0411C13.3056 16.041 13.3056 16.041 13.3056 16.041L10.7261 13.4614L10.7198 13.4552L10.7134 13.4492C10.6796 13.4177 10.6525 13.3798 10.6337 13.3376C10.6149 13.2954 10.6048 13.2499 10.604 13.2038C10.6032 13.1576 10.6117 13.1118 10.629 13.069C10.6463 13.0262 10.672 12.9873 10.7046 12.9546C10.7373 12.922 10.7762 12.8963 10.819 12.879C10.8618 12.8617 10.9076 12.8532 10.9538 12.854C10.9999 12.8548 11.0454 12.8649 11.0876 12.8837C11.1298 12.9025 11.1677 12.9296 11.1992 12.9634L11.2052 12.9698L11.2114 12.9761L13.7089 15.4736Z" fill="#555555" stroke="#555555"/>
</g>
</svg>
