<svg width="24" height="24" viewBox="0 0 24 24" fill="none" xmlns="http://www.w3.org/2000/svg">
<path d="M23.25 12.375C23.3625 12.15 23.3625 11.85 23.25 11.625C23.1 11.325 19.425 4.275 12 4.275C10.35 4.275 8.73752 4.65 7.23752 5.325C7.05002 5.4 6.90002 5.475 6.75002 5.5875L4.08752 2.925C3.75002 2.5875 3.22502 2.5875 2.88752 2.925C2.55002 3.2625 2.55002 3.7875 2.88752 4.125L19.875 21.075C20.025 21.225 20.25 21.3375 20.475 21.3375C20.7 21.3375 20.925 21.2625 21.075 21.075C21.4125 20.7375 21.4125 20.2125 21.075 19.875L18.7125 17.5125C18.75 17.475 18.75 17.475 18.7875 17.4375C21.75 15.3375 23.175 12.4875 23.25 12.375ZM13.4625 12.2625L11.7375 10.5375C11.8125 10.5375 11.925 10.5 12 10.5C12.825 10.5 13.5 11.175 13.5 12C13.5 12.075 13.4625 12.1875 13.4625 12.2625ZM14.775 13.575C14.8875 13.3875 14.9625 13.1625 15.0375 12.975C15.15 12.675 15.1875 12.3375 15.1875 12.0375C15.1875 10.275 13.7625 8.85 12 8.85C11.7375 8.85 11.4375 8.8875 11.175 8.9625L11.025 9C10.8 9.075 10.6125 9.15 10.3875 9.2625L7.95002 6.8625C9.22502 6.2625 10.5375 5.9625 11.925 5.9625C17.4 5.9625 20.625 10.65 21.45 12.0375C20.9625 12.825 19.725 14.7 17.7375 16.125C17.625 16.2 17.5125 16.275 17.4375 16.35L14.775 13.575Z" fill="#111928"/>
<path d="M12 18.075C6.52502 18.075 3.30002 13.3875 2.47502 12C2.85002 11.3625 3.71252 10.0875 5.02502 8.84999L3.86252 7.61249C1.83752 9.52499 0.787524 11.55 0.750024 11.625C0.637524 11.85 0.637524 12.15 0.750024 12.375C0.900024 12.675 4.57502 19.725 12 19.725C13.0125 19.725 14.025 19.575 15 19.3125L14.55 17.7C13.725 17.925 12.8625 18.075 12 18.075Z" fill="#111928"/>
</svg>
