<svg width="24" height="24" viewBox="0 0 24 24" fill="none" xmlns="http://www.w3.org/2000/svg">
<path d="M12 19.7625C4.57502 19.7625 0.900024 12.675 0.750024 12.375C0.637524 12.15 0.637524 11.85 0.750024 11.625C0.900024 11.325 4.57502 4.27502 12 4.27502C19.425 4.27502 23.1 11.325 23.25 11.625C23.3625 11.85 23.3625 12.15 23.25 12.375C23.1 12.675 19.425 19.7625 12 19.7625ZM2.47502 12C3.30002 13.3875 6.52502 18.075 12 18.075C17.475 18.075 20.7 13.3875 21.525 12C20.7 10.6125 17.475 5.92502 12 5.92502C6.52502 5.92502 3.30002 10.6125 2.47502 12Z" fill="#111928"/>
<path d="M12 15.1875C10.2375 15.1875 8.8125 13.7625 8.8125 12C8.8125 10.2375 10.2375 8.8125 12 8.8125C13.7625 8.8125 15.1875 10.2375 15.1875 12C15.1875 13.7625 13.7625 15.1875 12 15.1875ZM12 10.5C11.175 10.5 10.5 11.175 10.5 12C10.5 12.825 11.175 13.5 12 13.5C12.825 13.5 13.5 12.825 13.5 12C13.5 11.175 12.825 10.5 12 10.5Z" fill="#111928"/>
</svg>
