<svg width="24" height="24" viewBox="0 0 24 24" fill="none" xmlns="http://www.w3.org/2000/svg">
<g id="fe:search-plus">
<path id="Vector" fill-rule="evenodd" clip-rule="evenodd" d="M16.325 14.899L21.705 20.279C21.8941 20.4682 22.0003 20.7248 22.0002 20.9923C22.0001 21.2599 21.8937 21.5164 21.7045 21.7055C21.5153 21.8946 21.2587 22.0008 20.9912 22.0007C20.7236 22.0006 20.4671 21.8942 20.278 21.705L14.898 16.325C13.2897 17.5707 11.2673 18.1569 9.24214 17.9643C7.21699 17.7718 5.34124 16.815 3.99649 15.2886C2.65174 13.7622 1.939 11.7808 2.00326 9.74753C2.06753 7.71427 2.90396 5.78185 4.34242 4.34339C5.78087 2.90494 7.71329 2.0685 9.74656 2.00424C11.7798 1.93998 13.7612 2.65272 15.2876 3.99747C16.814 5.34222 17.7708 7.21796 17.9634 9.24312C18.1559 11.2683 17.5697 13.2907 16.324 14.899H16.325ZM10 16C11.5913 16 13.1174 15.3678 14.2427 14.2426C15.3679 13.1174 16 11.5913 16 9.99999C16 8.40869 15.3679 6.88257 14.2427 5.75735C13.1174 4.63213 11.5913 3.99999 10 3.99999C8.40871 3.99999 6.88259 4.63213 5.75737 5.75735C4.63215 6.88257 4.00001 8.40869 4.00001 9.99999C4.00001 11.5913 4.63215 13.1174 5.75737 14.2426C6.88259 15.3678 8.40871 16 10 16ZM13 11H11V13C11 13.2652 10.8947 13.5196 10.7071 13.7071C10.5196 13.8946 10.2652 14 10 14C9.7348 14 9.48044 13.8946 9.29291 13.7071C9.10537 13.5196 9.00001 13.2652 9.00001 13V11H7.00001C6.7348 11 6.48044 10.8946 6.29291 10.7071C6.10537 10.5196 6.00001 10.2652 6.00001 9.99999C6.00001 9.73477 6.10537 9.48042 6.29291 9.29288C6.48044 9.10535 6.7348 8.99999 7.00001 8.99999H9.00001V6.99999C9.00001 6.73477 9.10537 6.48042 9.29291 6.29288C9.48044 6.10535 9.7348 5.99999 10 5.99999C10.2652 5.99999 10.5196 6.10535 10.7071 6.29288C10.8947 6.48042 11 6.73477 11 6.99999V8.99999H13C13.2652 8.99999 13.5196 9.10535 13.7071 9.29288C13.8947 9.48042 14 9.73477 14 9.99999C14 10.2652 13.8947 10.5196 13.7071 10.7071C13.5196 10.8946 13.2652 11 13 11Z" fill="black"/>
</g>
</svg>
