<svg width="19" height="19" viewBox="0 0 19 19" fill="none" xmlns="http://www.w3.org/2000/svg">
<g id="gig">
<path id="Vector" d="M7.6522 1.19565C7.34698 1.19565 7.03003 1.3013 6.80698 1.52435C6.58394 1.74739 6.47829 2.06435 6.47829 2.36957V2.95652H1.19568V14.6957H7.76959C7.69329 14.32 7.6522 13.9267 7.6522 13.5217H2.36959V9.6713C2.7159 9.87087 3.11503 10 3.5435 10H8.83198C9.16068 9.55391 9.55981 9.15478 10.0059 8.82609H3.5435C2.84503 8.82609 2.36959 8.35065 2.36959 7.65217V4.13043H15.2826V7.65217C15.2826 7.74609 15.2768 7.83413 15.2592 7.9163C15.6818 8.04543 16.0809 8.22152 16.4565 8.4387V2.95652H11.1739V2.36957C11.1739 2.06435 11.0683 1.74739 10.8452 1.52435C10.6222 1.3013 10.3052 1.19565 10 1.19565H7.6522ZM7.6522 2.36957H10V2.95652H7.6522V2.36957ZM4.71742 6.47826V8.23913H5.89133V6.47826H4.71742ZM11.7609 6.47826V7.92217C12.1431 7.80272 12.5364 7.72209 12.9348 7.68152V6.47826H11.7609ZM13.5218 8.82609C10.9333 8.82609 8.82611 10.9333 8.82611 13.5217C8.82611 16.1102 10.9333 18.2174 13.5218 18.2174C16.1102 18.2174 18.2174 16.1102 18.2174 13.5217C18.2174 10.9333 16.1102 8.82609 13.5218 8.82609ZM13.5218 10C15.4705 10 17.0435 11.573 17.0435 13.5217C17.0435 15.4704 15.4705 17.0435 13.5218 17.0435C11.5731 17.0435 10 15.4704 10 13.5217C10 11.573 11.5731 10 13.5218 10ZM12.9348 10.587V14.1087H15.8696V12.9348H14.1087V10.587H12.9348Z" fill="#555555" stroke="#555555" stroke-width="0.5"/>
</g>
</svg>
