<svg width="20" height="20" viewBox="0 0 20 20" fill="none" xmlns="http://www.w3.org/2000/svg">
<g id="Group">
<path id="Vector" d="M3.69531 3.6963C3.69531 3.01461 3.96611 2.36085 4.44813 1.87883C4.93016 1.3968 5.58392 1.12601 6.2656 1.12601C6.94729 1.12601 7.60105 1.3968 8.08307 1.87883C8.5651 2.36085 8.83589 3.01461 8.83589 3.6963C8.83589 4.37798 8.5651 5.03175 8.08307 5.51377C7.60105 5.99579 6.94729 6.26659 6.2656 6.26659C5.58392 6.26659 4.93016 5.99579 4.44813 5.51377C3.96611 5.03175 3.69531 4.37798 3.69531 3.6963ZM6.2656 2.41115C5.92476 2.41115 5.59788 2.54655 5.35687 2.78756C5.11586 3.02857 4.98046 3.35546 4.98046 3.6963C4.98046 4.03714 5.11586 4.36402 5.35687 4.60503C5.59788 4.84604 5.92476 4.98144 6.2656 4.98144C6.60645 4.98144 6.93333 4.84604 7.17434 4.60503C7.41535 4.36402 7.55075 4.03714 7.55075 3.6963C7.55075 3.35546 7.41535 3.02857 7.17434 2.78756C6.93333 2.54655 6.60645 2.41115 6.2656 2.41115Z" fill="#555555" stroke="#555555" stroke-width="0.5"/>
<path id="Vector_2" d="M12.4073 5.73194C12.138 5.52656 11.912 5.27001 11.7422 4.97701C11.5724 4.68402 11.4622 4.36037 11.4179 4.02464C11.3736 3.68892 11.3961 3.34775 11.484 3.02074C11.572 2.69373 11.7237 2.38732 11.9304 2.11912C12.1371 1.85092 12.3948 1.62621 12.6887 1.45792C12.9825 1.28962 13.3068 1.18105 13.6427 1.13844C13.9786 1.09583 14.3197 1.12003 14.6463 1.20963C14.9728 1.29924 15.2784 1.4525 15.5456 1.66059C16.0716 2.08136 16.4114 2.69179 16.4919 3.36055C16.5724 4.0293 16.3872 4.70294 15.976 5.23651C15.5649 5.77007 14.9608 6.12093 14.2936 6.21359C13.6264 6.30624 12.9495 6.13329 12.4086 5.73194H12.4073ZM13.9764 2.41112C13.6356 2.41112 13.3087 2.54652 13.0677 2.78753C12.8267 3.02854 12.6913 3.35542 12.6913 3.69627C12.6913 4.03711 12.8267 4.36399 13.0677 4.605C13.3087 4.84601 13.6356 4.98141 13.9764 4.98141C14.3173 4.98141 14.6442 4.84601 14.8852 4.605C15.1262 4.36399 15.2616 4.03711 15.2616 3.69627C15.2616 3.35542 15.1262 3.02854 14.8852 2.78753C14.6442 2.54652 14.3173 2.41112 13.9764 2.41112Z" fill="#555555" stroke="#555555" stroke-width="0.5"/>
<path id="Vector_3" d="M3.05272 7.55173H6.48406C6.34269 7.95398 6.26558 8.38707 6.26558 8.83687H3.05272C2.8823 8.83687 2.71886 8.90457 2.59835 9.02508C2.47785 9.14558 2.41015 9.30902 2.41015 9.47945C2.41015 10.5294 2.82782 11.3082 3.4871 11.8377C3.79039 12.0819 4.15409 12.2785 4.56533 12.4224C4.26334 12.7434 4.03061 13.1231 3.88164 13.5379C3.45026 13.3646 3.04635 13.1296 2.6826 12.8401C1.71617 12.0626 1.125 10.9137 1.125 9.47945C1.125 8.96818 1.3281 8.47786 1.68962 8.11634C2.05113 7.75483 2.54146 7.55173 3.05272 7.55173Z" fill="#555555" stroke="#555555" stroke-width="0.5"/>
<path id="Vector_4" d="M7.89516 7.55171C7.55432 8.14239 7.46208 8.84427 7.63875 9.50296C7.81541 10.1616 8.24649 10.7232 8.83717 11.064C9.42785 11.4049 10.1297 11.4971 10.7884 11.3204C11.4471 11.1438 12.0086 10.7127 12.3495 10.122C12.6903 9.53132 12.7826 8.82944 12.6059 8.17075C12.4292 7.51207 11.9981 6.95054 11.4075 6.6097C10.8168 6.26886 10.1149 6.17662 9.45622 6.35328C8.79753 6.52995 8.236 6.96103 7.89516 7.55171ZM9.83316 7.58384C10.0215 7.5413 10.2169 7.5416 10.4051 7.58472C10.5932 7.62783 10.7693 7.71266 10.9203 7.83293C11.0713 7.95321 11.1933 8.10586 11.2774 8.27962C11.3615 8.45339 11.4055 8.64382 11.4062 8.83686C11.4061 9.07866 11.3378 9.31553 11.2091 9.52025C11.0804 9.72497 10.8966 9.88923 10.6787 9.99416C10.4609 10.0991 10.2178 10.1404 9.97754 10.1134C9.73725 10.0864 9.50945 9.9922 9.32031 9.84154C9.13118 9.69088 8.98839 9.48992 8.90834 9.26175C8.8283 9.03358 8.81425 8.78745 8.86781 8.55165C8.92138 8.31586 9.04038 8.09995 9.21114 7.92875C9.3819 7.75755 9.5975 7.638 9.83316 7.58384Z" fill="#555555" stroke="#555555" stroke-width="0.5"/>
<path id="Vector_5" d="M16.755 11.8377C16.4517 12.0819 16.088 12.2785 15.6767 12.4224C15.9783 12.7436 16.2105 13.1232 16.3591 13.5379C16.7961 13.3593 17.2009 13.1267 17.5595 12.8401C18.5259 12.0626 19.1171 10.9137 19.1171 9.47945C19.1171 8.96818 18.914 8.47786 18.5524 8.11634C18.1909 7.75483 17.7006 7.55173 17.1893 7.55173H13.758C13.8994 7.95398 13.9765 8.38707 13.9765 8.83687H17.1893C17.3598 8.83687 17.5232 8.90457 17.6437 9.02508C17.7642 9.14558 17.8319 9.30902 17.8319 9.47945C17.8319 10.5294 17.4142 11.3082 16.755 11.8377Z" fill="#555555" stroke="#555555" stroke-width="0.5"/>
<path id="Vector_6" d="M13.3339 12.6923C13.8451 12.6923 14.3354 12.8954 14.697 13.2569C15.0585 13.6185 15.2616 14.1088 15.2616 14.62C15.2616 16.0543 14.6717 17.2032 13.704 17.9807C12.7517 18.7454 11.4743 19.1181 10.121 19.1181C8.76774 19.1181 7.4903 18.7454 6.53801 17.9807C5.57158 17.2032 4.98041 16.0543 4.98041 14.62C4.97974 14.3667 5.02914 14.1157 5.12577 13.8815C5.22241 13.6474 5.36438 13.4346 5.54352 13.2554C5.72266 13.0763 5.93544 12.9343 6.16963 12.8377C6.40381 12.741 6.65479 12.6917 6.90813 12.6923H13.3339ZM13.3339 13.9775H6.90813C6.73771 13.9775 6.57427 14.0452 6.45377 14.1657C6.33326 14.2862 6.26556 14.4496 6.26556 14.62C6.26556 15.67 6.68323 16.4488 7.34251 16.9783C8.0185 17.5206 8.99007 17.8329 10.121 17.8329C11.2519 17.8329 12.2235 17.5206 12.8995 16.9783C13.5588 16.4488 13.9764 15.67 13.9764 14.62C13.9764 14.4496 13.9087 14.2862 13.7882 14.1657C13.6677 14.0452 13.5043 13.9775 13.3339 13.9775Z" fill="#555555" stroke="#555555" stroke-width="0.5"/>
</g>
</svg>
