<svg width="20" height="19" viewBox="0 0 20 19" fill="none" xmlns="http://www.w3.org/2000/svg">
<g id="Group">
<path id="Vector" d="M10.2368 1C10.7612 1.00001 11.2671 1.17486 11.6579 1.49112C12.0486 1.80737 12.2969 2.24285 12.3552 2.71429H14.0263C14.3062 2.71429 14.5834 2.76417 14.842 2.86109C15.1006 2.95801 15.3356 3.10007 15.5336 3.27915C15.7315 3.45824 15.8885 3.67084 15.9956 3.90482C16.1028 4.13881 16.1579 4.38959 16.1579 4.64286V9.14114C15.7021 8.96907 15.2249 8.84762 14.7368 8.77943V4.64286C14.7368 4.47236 14.662 4.30885 14.5287 4.18829C14.3955 4.06773 14.2148 4 14.0263 4H12.0094C11.6266 4.51686 10.9758 4.85714 10.2368 4.85714H6.92105C6.1821 4.85714 5.53126 4.51686 5.14853 4H3.13158C2.94314 4 2.76241 4.06773 2.62916 4.18829C2.49591 4.30885 2.42105 4.47236 2.42105 4.64286V16.2143C2.42105 16.5691 2.73937 16.8571 3.13158 16.8571H8.32505C8.59629 17.3274 8.94016 17.7603 9.34632 18.1429H3.13158C2.56625 18.1429 2.02407 17.9397 1.62433 17.578C1.22458 17.2163 1 16.7258 1 16.2143V4.64286C1 4.13137 1.22458 3.64083 1.62433 3.27915C2.02407 2.91747 2.56625 2.71429 3.13158 2.71429H4.80274C4.86099 2.24285 5.10925 1.80737 5.50004 1.49112C5.89083 1.17486 6.39674 1.00001 6.92105 1H10.2368ZM12.3589 2.74171C12.3578 2.73256 12.3565 2.72342 12.3552 2.71429L12.358 2.74171H12.3589ZM12.3637 2.79657L12.3684 2.92857C12.3684 2.88057 12.3665 2.83343 12.3627 2.78629V2.79657H12.3637ZM10.2368 2.28571H6.92105C6.73261 2.28571 6.55188 2.35344 6.41863 2.474C6.28539 2.59456 6.21053 2.75808 6.21053 2.92857C6.21053 3.09907 6.28539 3.26258 6.41863 3.38314C6.55188 3.5037 6.73261 3.57143 6.92105 3.57143H10.2368C10.4253 3.57143 10.606 3.5037 10.7393 3.38314C10.8725 3.26258 10.9474 3.09907 10.9474 2.92857C10.9474 2.75808 10.8725 2.59456 10.7393 2.474C10.606 2.35344 10.4253 2.28571 10.2368 2.28571ZM10.7371 11.2651C10.8077 11.4867 10.8283 11.719 10.7974 11.9479C10.7666 12.1769 10.685 12.3979 10.5575 12.5976C10.4301 12.7974 10.2594 12.9718 10.0556 13.1105C9.85191 13.2491 9.61936 13.3491 9.37189 13.4046L8.81863 13.528C8.72995 14.0413 8.73187 14.5641 8.82431 15.0769L9.33589 15.1883C9.5856 15.2427 9.82047 15.3425 10.0262 15.4816C10.232 15.6207 10.4044 15.7962 10.5328 15.9974C10.6613 16.1986 10.7432 16.4214 10.7736 16.6521C10.804 16.8829 10.7822 17.1168 10.7096 17.3397L10.5324 17.8814C10.9493 18.2123 11.4229 18.4806 11.9383 18.6717L12.4063 18.226C12.5834 18.0576 12.7964 17.9236 13.0325 17.832C13.2686 17.7404 13.5228 17.6932 13.7797 17.6933C14.0366 17.6934 14.2908 17.7407 14.5268 17.8324C14.7629 17.9242 14.9758 18.0584 15.1527 18.2269L15.6245 18.6769C16.1375 18.4882 16.6123 18.2237 17.0295 17.8943L16.8419 17.3063C16.7712 17.0847 16.7507 16.8524 16.7815 16.6235C16.8124 16.3945 16.894 16.1736 17.0214 15.9738C17.1489 15.7741 17.3196 15.5996 17.5233 15.461C17.727 15.3223 17.9596 15.2223 18.2071 15.1669L18.7603 15.0434C18.8491 14.5298 18.8472 14.0068 18.7546 13.4937L18.2431 13.3823C17.9933 13.3279 17.7585 13.2281 17.5527 13.089C17.3469 12.9499 17.1746 12.7744 17.0461 12.5732C16.9176 12.372 16.8357 12.1492 16.8053 11.9185C16.7749 11.6877 16.7967 11.4538 16.8694 11.2309L17.0465 10.6909C16.6296 10.3586 16.1545 10.0915 15.6406 9.90057L15.1736 10.3446C14.9966 10.5132 14.7835 10.6474 14.5474 10.7391C14.3112 10.8308 14.0569 10.8781 13.7999 10.8781C13.5429 10.8781 13.2886 10.8308 13.0524 10.7391C12.8163 10.6474 12.6032 10.5132 12.4262 10.3446L11.9544 9.89457C11.4391 10.0831 10.9654 10.3489 10.5495 10.6763L10.7371 11.2651ZM13.7895 15.5714C13.0316 15.5714 12.4158 14.9954 12.4158 14.2857C12.4158 13.576 13.0316 13 13.7895 13C14.5474 13 15.1632 13.576 15.1632 14.2857C15.1632 14.9954 14.5474 15.5714 13.7895 15.5714Z" fill="#555555" stroke="#555555" stroke-width="0.5"/>
</g>
</svg>
