<svg width="18" height="18" viewBox="0 0 18 18" fill="none" xmlns="http://www.w3.org/2000/svg">
<g id="house">
<path id="Vector" d="M5.08126 7.1899L5.23688 7.04206V6.8274V1.8C5.23688 1.1073 5.83834 0.5 6.63162 0.5H16.1053C16.8986 0.5 17.5 1.1073 17.5 1.8V17.1C17.5 17.1976 17.4595 17.2967 17.3782 17.3739C17.296 17.452 17.1794 17.5 17.0527 17.5H1.89478C1.76809 17.5 1.65142 17.452 1.56926 17.3739C1.48797 17.2967 1.44741 17.1976 1.44741 17.1V12.6V12.1001L0.947512 12.1C0.853506 12.1 0.763553 12.0734 0.689196 12.0262C0.615075 11.9791 0.561322 11.9148 0.530682 11.8446C0.500194 11.7746 0.492679 11.6993 0.507831 11.6269C0.523025 11.5543 0.561251 11.4839 0.621996 11.4262C0.622014 11.4262 0.622033 11.4262 0.622051 11.4261L5.08126 7.1899ZM8.52636 16.7H9.02636V16.2V11.1726V10.9579L8.87073 10.8101L6.02863 8.1101L5.68425 7.78294L5.33988 8.1101L2.49777 10.8101L2.34215 10.9579V11.1726V16.2V16.7H2.84215H8.52636ZM16.1053 16.7H16.6053V16.2V1.8V1.3H16.1053H6.63162H6.13162V1.8V6.8274V7.04206L6.28724 7.1899L10.7465 11.4262L10.7473 11.427C10.8083 11.4846 10.8467 11.555 10.8619 11.6275C10.8772 11.6999 10.8697 11.7752 10.8392 11.8451C10.8086 11.9154 10.7548 11.9796 10.6806 12.0266C10.6062 12.0737 10.5162 12.1002 10.4221 12.1L9.92109 12.0989V12.6V16.2V16.7H10.4211H16.1053Z" fill="#555555" stroke="#555555"/>
<path id="Vector_2" d="M8.52629 3.6H10.421V5.4H8.52629V3.6ZM12.3158 3.6H14.2105V5.4H12.3158V3.6ZM12.3158 7.2279H14.2105V9H12.3158V7.2279ZM12.3158 10.8H14.2105V12.6H12.3158V10.8ZM4.73682 11.7H6.63155V13.5H4.73682V11.7Z" fill="black"/>
</g>
</svg>
