<svg width="18" height="18" viewBox="0 0 18 18" fill="none" xmlns="http://www.w3.org/2000/svg">
<g id="job">
<path id="Vector" d="M12.2617 3.30329V3.80329H12.7617H15.75C16.2543 3.80329 16.6586 3.97114 16.9953 4.3093C17.3256 4.64105 17.5 5.06583 17.5 5.62587V8.71055C17.5 8.79873 17.4891 8.85596 17.4781 8.89032C17.4677 8.92243 17.4579 8.93255 17.4563 8.93422C17.455 8.93555 17.4478 8.94336 17.422 8.95222C17.3937 8.96196 17.3432 8.97264 17.2617 8.97264H16.7617V9.47264V15.6783C16.7617 15.9507 16.6663 16.1912 16.4456 16.4191C16.2248 16.647 15.999 16.7388 15.75 16.7388H2.25C2.00105 16.7388 1.77524 16.647 1.55443 16.4191C1.33365 16.1912 1.23828 15.9507 1.23828 15.6783V9.47264V8.97264H0.738281C0.656806 8.97264 0.606287 8.96196 0.577965 8.95222C0.552659 8.94351 0.545226 8.93581 0.543759 8.93429L0.54369 8.93422C0.54207 8.93255 0.532321 8.92243 0.52195 8.89032C0.510857 8.85596 0.5 8.79873 0.5 8.71055V5.62587C0.5 5.06583 0.674395 4.64105 1.00471 4.3093C1.3414 3.97114 1.74574 3.80329 2.25 3.80329H5.23828H5.73828V3.30329V2.5049C5.73828 1.97459 5.90927 1.55103 6.24779 1.20159C6.58557 0.852914 6.98846 0.68232 7.48828 0.68232H10.5117C11.0115 0.68232 11.4144 0.852914 11.7522 1.20159C12.0907 1.55103 12.2617 1.97459 12.2617 2.5049V3.30329ZM11.25 3.80329H11.75V3.30329V2.5049C11.75 2.16834 11.6366 1.85872 11.3982 1.61265C11.1589 1.36561 10.8514 1.2428 10.5117 1.2428H7.48828C7.14861 1.2428 6.84114 1.36561 6.60182 1.61265C6.36343 1.85872 6.25 2.16834 6.25 2.5049V3.30329V3.80329H6.75H11.25ZM1.75 15.6783V16.1783H2.25H15.75H16.25V15.6783V9.47264V8.97264H15.75H11.25H10.75V9.47264V11.7952C10.75 12.1058 10.6507 12.3485 10.4514 12.5542C10.2528 12.7592 10.0251 12.8557 9.73828 12.8557H8.26172C7.97491 12.8557 7.74715 12.7592 7.54857 12.5542C7.34935 12.3485 7.25 12.1058 7.25 11.7952V9.47264V8.97264H6.75H2.25H1.75V9.47264V15.6783ZM7.76172 11.7952V12.2952H8.26172H9.73828H10.2383V11.7952V9.47264V8.97264H9.73828H8.26172H7.76172V9.47264V11.7952ZM16.4883 8.44845H16.9883V7.94845V5.62587C16.9883 5.29196 16.9119 4.94833 16.6708 4.68761C16.4229 4.41951 16.0836 4.32748 15.75 4.32748H2.25C1.91635 4.32748 1.57711 4.41951 1.32919 4.68761C1.0881 4.94833 1.01172 5.29196 1.01172 5.62587V7.94845V8.44845H1.51172H16.4883Z" fill="#555555" stroke="#555555"/>
</g>
</svg>
