<svg width="20" height="18" viewBox="0 0 20 18" fill="none" xmlns="http://www.w3.org/2000/svg">
<g id="Group">
<path id="Vector" d="M10 18C9.35501 17.428 8.62601 16.833 7.85501 16.2H7.84501C5.13001 13.98 2.05301 11.468 0.694012 8.45802C0.248011 7.50002 0.0110115 6.45802 1.14776e-05 5.40002C-0.00147023 4.68201 0.140523 3.97093 0.417654 3.30855C0.694785 2.64616 1.10147 2.04583 1.61382 1.54279C2.12617 1.03975 2.73387 0.644155 3.40122 0.379224C4.06858 0.114293 4.78214 -0.0146307 5.50001 2.42469e-05C6.68064 0.00188905 7.83585 0.343106 8.82801 0.983024C9.26398 1.26599 9.65843 1.60828 10 2.00002C10.344 1.61002 10.738 1.26802 11.173 0.983024C12.1647 0.342979 13.3197 0.0017428 14.5 2.42469e-05C15.2179 -0.0146307 15.9314 0.114293 16.5988 0.379224C17.2662 0.644155 17.8739 1.03975 18.3862 1.54279C18.8986 2.04583 19.3052 2.64616 19.5824 3.30855C19.8595 3.97093 20.0015 4.68201 20 5.40002C19.9898 6.45884 19.7532 7.50322 19.306 8.46302C17.947 11.473 14.871 13.984 12.156 16.2L12.146 16.208C11.374 16.837 10.646 17.432 10.001 18.008L10 18ZM5.50001 2.00002C4.56852 1.98837 3.67008 2.34487 3.00001 2.99202C2.68047 3.3059 2.42728 3.68081 2.25549 4.09448C2.0837 4.50814 1.99682 4.95212 2.00001 5.40002C2.01101 6.17002 2.18601 6.93002 2.51201 7.62802C3.15354 8.92672 4.01914 10.1021 5.06901 11.1C6.06001 12.1 7.20001 13.068 8.18601 13.882C8.45901 14.107 8.73701 14.334 9.01501 14.561L9.19001 14.704C9.45701 14.922 9.73301 15.148 10 15.37L10.013 15.358L10.019 15.353H10.025L10.034 15.346H10.044L10.062 15.331L10.103 15.298L10.11 15.292L10.121 15.284H10.127L10.136 15.276L10.8 14.731L10.974 14.588C11.255 14.359 11.533 14.132 11.806 13.907C12.792 13.093 13.933 12.126 14.924 11.121C15.9741 10.1236 16.8397 8.94856 17.481 7.65002C17.813 6.94602 17.991 6.17802 18.001 5.40002C18.0029 4.9534 17.9154 4.51092 17.7434 4.09871C17.5715 3.6865 17.3187 3.31291 17 3.00002C16.3312 2.34994 15.4326 1.99051 14.5 2.00002C13.9373 1.99524 13.38 2.10958 12.8647 2.33554C12.3494 2.56149 11.8877 2.89393 11.51 3.31102L10 5.05102L8.49001 3.31102C8.11232 2.89393 7.65064 2.56149 7.13531 2.33554C6.61999 2.10958 6.06268 1.99524 5.50001 2.00002Z" fill="black"/>
<path id="Vector_2" d="M10.0816 9.93131C9.6946 9.67722 10.0618 10.6814 8.713 12.1968H8.707C7.078 11.2107 5.23181 10.0948 4.41641 8.75769C4.14881 8.33212 4.00661 7.86925 4.00001 7.39926C3.99912 7.08031 4.08431 6.76443 4.25059 6.47019C4.41687 6.17595 4.89259 4.72346 5.20001 4.5C5.50742 4.27654 5.64032 5.28661 6.04073 5.16893C6.44114 5.05124 6.86928 4.99397 7.3 5.00048C8.00838 5.00131 8.7015 5.15288 9.2968 5.43715C9.55838 5.56285 9.79505 5.7149 10 5.88892C10.2064 5.71567 10.4428 5.56375 10.7038 5.43715C11.2988 5.15283 11.9918 5.00124 12.7 5.00048C13.1307 4.99397 13.7407 4.14357 14.2 4.8125C14.4362 5.15656 15.1926 4.77654 15.5 5C15.8074 5.22346 15.5831 6.17595 15.7494 6.47019C15.9157 6.76443 16.0009 7.08031 16 7.39926C15.9939 7.86961 15.8519 8.33354 15.5836 8.75991C14.7682 10.097 12.9226 11.2124 11.2936 12.1968L11.2876 12.2004C10.8244 12.4798 10.3876 12.7441 10.0006 13L10.0816 9.93131ZM7.3 5.88892C6.74111 5.88374 6.20205 6.0421 5.8 6.32958C5.60828 6.46901 5.45636 6.63556 5.35329 6.81931C5.25022 7.00307 5.19809 7.2003 5.20001 7.39926C5.20661 7.74131 5.31161 8.07892 5.50721 8.38898C5.89212 8.96589 6.41148 9.488 7.0414 9.93131C7.636 10.3755 8.32 10.8055 8.9116 11.1671C9.0754 11.2671 9.2422 11.3679 9.409 11.4688L9.514 11.5323C9.6742 11.6291 9.8398 11.7295 10 11.8281L10.0078 11.8228L10.0114 11.8206H10.015L10.0204 11.8175H10.0264L10.0372 11.8108L10.0618 11.7961L10.066 11.7935L10.0726 11.7899H10.0762L10.0816 11.7864L10.48 11.5443L10.5844 11.4808C10.753 11.379 10.9198 11.2782 11.0836 11.1782C11.6752 10.8166 12.3598 10.3871 12.9544 9.94064C13.5844 9.49757 14.1038 8.97559 14.4886 8.39876C14.6878 8.08603 14.7946 7.74487 14.8006 7.39926C14.8018 7.20086 14.7492 7.00431 14.646 6.82119C14.5429 6.63808 14.3912 6.47213 14.2 6.33314C13.7987 6.04436 13.2596 5.88469 12.7 5.88892C12.3624 5.88679 12.028 5.93759 11.7188 6.03796C11.4096 6.13833 11.1326 6.28601 10.906 6.47129L10 7.24423L9.094 6.47129C8.86739 6.28601 8.59038 6.13833 8.28118 6.03796C7.97199 5.93759 7.6376 5.88679 7.3 5.88892Z" fill="#C4C4C4" stroke="black" stroke-width="6" stroke-linejoin="round"/>
</g>
</svg>
