<svg width="19" height="17" viewBox="0 0 19 17" fill="none" xmlns="http://www.w3.org/2000/svg">
<g id="Group">
<path id="Vector" d="M9.61388 16.1729C9.02989 15.6711 8.36985 15.1491 7.67179 14.5938H7.66273C5.20456 12.6463 2.41862 10.4427 1.18818 7.80216C0.784365 6.96176 0.569784 6.04766 0.559825 5.11953C0.558483 4.48965 0.687045 3.86586 0.937961 3.28479C1.18888 2.70371 1.55709 2.17707 2.02098 1.73578C2.48486 1.29449 3.03507 0.94745 3.6393 0.715039C4.24353 0.482628 4.88959 0.36953 5.53956 0.382386C6.6085 0.384022 7.65443 0.683354 8.55275 1.24472C8.94747 1.49296 9.30461 1.79323 9.61388 2.13688C9.92534 1.79476 10.2821 1.49474 10.6759 1.24472C11.5738 0.683243 12.6195 0.383894 13.6882 0.382386C14.3382 0.36953 14.9842 0.482628 15.5885 0.715039C16.1927 0.94745 16.7429 1.29449 17.2068 1.73578C17.6707 2.17707 18.0389 2.70371 18.2898 3.28479C18.5407 3.86586 18.6693 4.48965 18.6679 5.11953C18.6587 6.04838 18.4445 6.96456 18.0396 7.80655C16.8091 10.4471 14.0241 12.6498 11.5659 14.5938L11.5569 14.6008C10.8579 15.1526 10.1988 15.6746 9.61479 16.1799L9.61388 16.1729ZM5.53956 2.13688C4.69618 2.12666 3.88273 2.4394 3.27604 3.00712C2.98672 3.28247 2.75748 3.61136 2.60195 3.97424C2.44641 4.33713 2.36775 4.72661 2.37064 5.11953C2.3806 5.79501 2.53904 6.46172 2.8342 7.07404C3.41505 8.21332 4.19876 9.24439 5.14933 10.1199C6.04658 10.9971 7.07875 11.8463 7.97148 12.5604C8.21865 12.7577 8.47035 12.9569 8.72206 13.156L8.8805 13.2815C9.12225 13.4727 9.37214 13.671 9.61388 13.8657L9.62565 13.8552L9.63108 13.8508H9.63652L9.64467 13.8447H9.65372L9.67002 13.8315L9.70714 13.8025L9.71348 13.7973L9.72344 13.7903H9.72887L9.73702 13.7832L10.3382 13.3051L10.4957 13.1797C10.7502 12.9788 11.0019 12.7797 11.249 12.5823C12.1418 11.8682 13.1748 11.0199 14.0721 10.1383C15.0228 9.2633 15.8066 8.23248 16.3872 7.09334C16.6878 6.47576 16.849 5.80203 16.858 5.11953C16.8598 4.72773 16.7805 4.33956 16.6248 3.97795C16.4692 3.61634 16.2403 3.28862 15.9517 3.01413C15.3462 2.44385 14.5326 2.12854 13.6882 2.13688C13.1788 2.13269 12.6742 2.233 12.2076 2.43121C11.741 2.62943 11.323 2.92106 10.981 3.28696L9.61388 4.81337L8.24672 3.28696C7.90476 2.92106 7.48675 2.62943 7.02017 2.43121C6.55359 2.233 6.049 2.13269 5.53956 2.13688Z" fill="black"/>
</g>
</svg>
