<svg width="20" height="20" viewBox="0 0 20 20" fill="none" xmlns="http://www.w3.org/2000/svg">
<g id="Group">
<path id="Vector" d="M17.5 16.615C18.7382 15.2116 19.5577 13.4888 19.8653 11.6427C20.1728 9.79661 19.9562 7.90124 19.2399 6.17217C18.5236 4.4431 17.3365 2.94974 15.8136 1.86192C14.2906 0.774114 12.493 0.135518 10.625 0.0187683V9.74127L17.5 16.6163V16.615ZM16.615 17.5L10.625 11.5075V19.98C12.8427 19.8439 14.9512 18.9701 16.615 17.4975V17.5ZM9.37504 19.9813V11.5088L3.38504 17.5C5.04904 18.9721 7.1575 19.8455 9.37504 19.9813ZM2.50004 16.615C1.26186 15.2116 0.442389 13.4888 0.134812 11.6427C-0.172765 9.79661 0.0439016 7.90124 0.76017 6.17217C1.47644 4.4431 2.66356 2.94974 4.18651 1.86192C5.70947 0.774114 7.50713 0.135518 9.37504 0.0187683V9.74127L2.50004 16.6163V16.615Z" fill="#B160FB"/>
</g>
</svg>
