<svg width="24" height="24" viewBox="0 0 24 24" fill="none" xmlns="http://www.w3.org/2000/svg">
<g id="map pin">
<path id="Vector" d="M11.5 7C12.163 7 12.7989 7.26339 13.2678 7.73223C13.7366 8.20107 14 8.83696 14 9.5C14 10.163 13.7366 10.7989 13.2678 11.2678C12.7989 11.7366 12.163 12 11.5 12C10.837 12 10.2011 11.7366 9.73224 11.2678C9.2634 10.7989 9.00001 10.163 9.00001 9.5C9.00001 8.83696 9.2634 8.20107 9.73224 7.73223C10.2011 7.26339 10.837 7 11.5 7ZM11.5 8C11.1022 8 10.7207 8.15804 10.4393 8.43934C10.158 8.72064 10 9.10218 10 9.5C10 9.89783 10.158 10.2794 10.4393 10.5607C10.7207 10.842 11.1022 11 11.5 11C11.8978 11 12.2794 10.842 12.5607 10.5607C12.842 10.2794 13 9.89783 13 9.5C13 9.10218 12.842 8.72064 12.5607 8.43934C12.2794 8.15804 11.8978 8 11.5 8ZM6.80001 12.357L11.5 20.087L16.2 12.357C16.7069 11.523 16.9827 10.5691 16.9992 9.59333C17.0157 8.61751 16.7722 7.65488 16.2938 6.80424C15.8154 5.9536 15.1192 5.24558 14.2768 4.75285C13.4343 4.26012 12.476 4.00043 11.5 4.00043C10.5241 4.00043 9.56567 4.26012 8.72323 4.75285C7.88079 5.24558 7.18463 5.9536 6.7062 6.80424C6.22777 7.65488 5.98431 8.61751 6.00079 9.59333C6.01728 10.5691 6.29312 11.523 6.80001 12.357ZM17.054 12.877L11.5 22.012L5.94601 12.877C5.34713 11.8913 5.02129 10.7641 5.00192 9.61094C4.98256 8.45777 5.27037 7.32022 5.83581 6.31502C6.40126 5.30981 7.22398 4.47316 8.21955 3.89091C9.21512 3.30867 10.3477 3.0018 11.501 3.0018C12.6543 3.0018 13.7869 3.30867 14.7825 3.89091C15.778 4.47316 16.6008 5.30981 17.1662 6.31502C17.7316 7.32022 18.0195 8.45777 18.0001 9.61094C17.9807 10.7641 17.6549 11.8913 17.056 12.877H17.054Z" fill="black" fill-opacity="0.25" stroke="black" stroke-opacity="0.25"/>
</g>
</svg>
