<svg width="18" height="19" viewBox="0 0 18 19" fill="none" xmlns="http://www.w3.org/2000/svg">
<g id="sale">
<path id="Vector" d="M1.70686 11.0887L7.91376 18.0564C8.45686 18.6371 9.09048 18.9274 9.81462 18.9274C10.4612 18.9274 11.0172 18.746 11.4827 18.383L16.875 14.1371C17.3922 13.7016 17.6896 13.1572 17.7672 12.504C17.8448 11.8992 17.6508 11.3064 17.1853 10.7258L10.9784 3.75805C10.306 2.93547 9.42669 2.4153 8.34048 2.19756L2.94824 1.03627C2.431 0.891111 1.93962 0.999982 1.47411 1.36288L0.814624 1.90724C0.426693 2.17337 0.232727 2.60885 0.232727 3.21369L0.543072 8.40321C0.672382 9.44353 1.06031 10.3387 1.70686 11.0887ZM2.6379 2.52418L8.10773 3.75805C8.67669 3.87901 9.24566 4.20563 9.81462 4.73789L16.0215 11.7056C16.2284 11.8992 16.2931 12.1169 16.2155 12.3589C16.2155 12.504 16.0991 12.7097 15.8663 12.9758L10.4741 17.2218C10.2931 17.3669 10.0732 17.4335 9.81462 17.4214C9.556 17.4093 9.36204 17.3185 9.23273 17.1492L3.02583 10.1814C2.53445 9.60079 2.28876 9.00805 2.28876 8.40321L1.90083 3.06853L2.6379 2.52418ZM4.84911 5.0645C4.84911 5.28224 4.77152 5.46369 4.61635 5.60885C4.46117 5.75401 4.26721 5.82659 4.03445 5.82659C3.80169 5.82659 3.60773 5.75401 3.45255 5.60885C3.29738 5.46369 3.2198 5.28224 3.2198 5.0645C3.2198 4.84676 3.29738 4.6653 3.45255 4.52014C3.60773 4.37498 3.80169 4.3024 4.03445 4.3024C4.26721 4.3024 4.46117 4.37498 4.61635 4.52014C4.77152 4.6653 4.84911 4.84676 4.84911 5.0645ZM5.27583 10.4718L12.8793 12.7218H13.1508C13.5129 12.7218 13.7844 12.5403 13.9655 12.1774C14.0431 11.9839 14.0301 11.7903 13.9267 11.5968C13.8232 11.4032 13.6681 11.2701 13.4612 11.1976L5.85773 8.94756C5.65083 8.85079 5.43747 8.85079 5.21764 8.94756C4.99781 9.04434 4.84911 9.1895 4.77152 9.38305C4.61635 9.9395 4.78445 10.3024 5.27583 10.4718ZM11.4827 13.9556C11.4827 14.2701 11.3663 14.5423 11.1336 14.7722C10.9008 15.002 10.6034 15.1169 10.2413 15.1169C9.87928 15.1169 9.58186 15.002 9.3491 14.7722C9.11635 14.5423 8.99997 14.2701 8.99997 13.9556C8.99997 13.6411 9.12281 13.3689 9.3685 13.1391C9.61419 12.9093 9.90514 12.7943 10.2413 12.7943C10.5776 12.7943 10.8685 12.9093 11.1142 13.1391C11.3599 13.3689 11.4827 13.6411 11.4827 13.9556ZM8.99997 7.78627C8.99997 8.10079 8.87712 8.37297 8.63143 8.6028C8.38574 8.83264 8.09479 8.94756 7.75859 8.94756C7.42238 8.94756 7.13143 8.83264 6.88574 8.6028C6.64005 8.37297 6.51721 8.10079 6.51721 7.78627C6.51721 7.47176 6.63359 7.19958 6.86635 6.96974C7.09911 6.7399 7.39652 6.62498 7.75859 6.62498C8.12066 6.62498 8.41807 6.7399 8.65083 6.96974C8.88359 7.19958 8.99997 7.47176 8.99997 7.78627Z" fill="#555555"/>
</g>
</svg>
