<svg width="20" height="20" viewBox="0 0 20 20" fill="none" xmlns="http://www.w3.org/2000/svg">
<g id="Group">
<path id="Vector" d="M14.281 1.21903C14.1761 1.11387 14.0423 1.04222 13.8967 1.01317C13.751 0.984123 13.6 0.998977 13.4628 1.05585C13.3256 1.11273 13.2084 1.20907 13.126 1.33265C13.0436 1.45623 12.9997 1.6015 13 1.75003V4.02103C10.6 4.15303 8.77 4.93603 7.471 6.29353C6.055 7.77403 5.362 9.83503 5.128 12.175C5.112 12.3293 5.14425 12.4848 5.22031 12.62C5.29636 12.7553 5.41248 12.8636 5.55266 12.93C5.69284 12.9965 5.85019 13.0179 6.00302 12.9912C6.15585 12.9645 6.29664 12.8911 6.406 12.781C7.822 11.3635 9.118 10.684 10.3 10.345C11.233 10.078 12.1195 10.0165 13 10.003V12.25C12.9997 12.3986 13.0436 12.5438 13.126 12.6674C13.2084 12.791 13.3256 12.8873 13.4628 12.9442C13.6 13.0011 13.751 13.0159 13.8967 12.9869C14.0423 12.9578 14.1761 12.8862 14.281 12.781L19.531 7.53103C19.6008 7.46136 19.6563 7.3786 19.6941 7.28748C19.7319 7.19636 19.7513 7.09868 19.7513 7.00003C19.7513 6.90138 19.7319 6.8037 19.6941 6.71258C19.6563 6.62146 19.6008 6.5387 19.531 6.46903L14.281 1.21903ZM14.5 4.75003V3.56053L17.9395 7.00003L14.5 10.4395V9.25003C14.5 9.05112 14.421 8.86035 14.2803 8.7197C14.1397 8.57905 13.9489 8.50003 13.75 8.50003H13.72C12.61 8.50003 11.302 8.50003 9.8875 8.90503C8.84101 9.20819 7.85494 9.69032 6.973 10.33C7.303 9.10153 7.822 8.09503 8.554 7.33003C9.634 6.20353 11.275 5.50003 13.75 5.50003C13.9489 5.50003 14.1397 5.42101 14.2803 5.28036C14.421 5.13971 14.5 4.94894 14.5 4.75003ZM2.5 6.25003C2.5 5.65329 2.73705 5.081 3.15901 4.65904C3.58097 4.23708 4.15326 4.00003 4.75 4.00003H6.25C6.44891 4.00003 6.63968 3.92101 6.78033 3.78036C6.92098 3.63971 7 3.44894 7 3.25003C7 3.05112 6.92098 2.86035 6.78033 2.7197C6.63968 2.57905 6.44891 2.50003 6.25 2.50003H4.75C3.75544 2.50003 2.80161 2.89512 2.09835 3.59838C1.39509 4.30164 1 5.25547 1 6.25003V15.25C1 16.2446 1.39509 17.1984 2.09835 17.9017C2.80161 18.6049 3.75544 19 4.75 19H13.75C14.7446 19 15.6984 18.6049 16.4017 17.9017C17.1049 17.1984 17.5 16.2446 17.5 15.25V13.75C17.5 13.5511 17.421 13.3604 17.2803 13.2197C17.1397 13.079 16.9489 13 16.75 13C16.5511 13 16.3603 13.079 16.2197 13.2197C16.079 13.3604 16 13.5511 16 13.75V15.25C16 15.8468 15.7629 16.4191 15.341 16.841C14.919 17.263 14.3467 17.5 13.75 17.5H4.75C4.15326 17.5 3.58097 17.263 3.15901 16.841C2.73705 16.4191 2.5 15.8468 2.5 15.25V6.25003Z" fill="#555555" stroke="#555555" stroke-width="0.5"/>
</g>
</svg>
